<svg width="21" height="21" viewBox="0 0 21 21" fill="none" xmlns="http://www.w3.org/2000/svg">
<path d="M20.8256 4.51906C20.7552 4.43481 20.6672 4.36705 20.5677 4.32056C20.4683 4.27407 20.3598 4.24998 20.25 4.25H5.12625L4.66781 1.73187C4.60502 1.38625 4.42292 1.07363 4.15325 0.848508C3.88359 0.623388 3.54347 0.500051 3.19219 0.5H1.5C1.30109 0.5 1.11032 0.579018 0.96967 0.71967C0.829018 0.860322 0.75 1.05109 0.75 1.25C0.75 1.44891 0.829018 1.63968 0.96967 1.78033C1.11032 1.92098 1.30109 2 1.5 2H3.1875L5.58375 15.1522C5.65434 15.5422 5.82671 15.9067 6.08344 16.2087C5.72911 16.5397 5.47336 16.9623 5.34455 17.4298C5.21575 17.8972 5.21892 18.3912 5.35371 18.8569C5.48851 19.3226 5.74966 19.7419 6.10821 20.0683C6.46676 20.3947 6.9087 20.6154 7.38502 20.7059C7.86134 20.7965 8.35344 20.7533 8.80673 20.5813C9.26003 20.4092 9.65682 20.115 9.9531 19.7312C10.2494 19.3474 10.4336 18.889 10.4853 18.407C10.537 17.9249 10.4541 17.4379 10.2459 17H14.5041C14.3363 17.3513 14.2495 17.7357 14.25 18.125C14.25 18.6442 14.404 19.1517 14.6924 19.5834C14.9808 20.0151 15.3908 20.3515 15.8705 20.5502C16.3501 20.7489 16.8779 20.8008 17.3871 20.6996C17.8963 20.5983 18.364 20.3483 18.7312 19.9812C19.0983 19.614 19.3483 19.1463 19.4496 18.6371C19.5508 18.1279 19.4989 17.6001 19.3002 17.1205C19.1015 16.6408 18.7651 16.2308 18.3334 15.9424C17.9017 15.654 17.3942 15.5 16.875 15.5H7.79719C7.62155 15.5 7.45149 15.4383 7.31665 15.3257C7.18182 15.2132 7.09077 15.0569 7.05938 14.8841L6.76219 13.25H17.6372C18.1641 13.2499 18.6743 13.0649 19.0788 12.7272C19.4833 12.3896 19.7564 11.9206 19.8506 11.4022L20.9906 5.13406C21.0099 5.02572 21.0051 4.91447 20.9766 4.80818C20.9481 4.7019 20.8966 4.60319 20.8256 4.51906ZM16.875 17C17.0975 17 17.315 17.066 17.5 17.1896C17.685 17.3132 17.8292 17.4889 17.9144 17.6945C17.9995 17.9 18.0218 18.1262 17.9784 18.3445C17.935 18.5627 17.8278 18.7632 17.6705 18.9205C17.5132 19.0778 17.3127 19.185 17.0945 19.2284C16.8762 19.2718 16.65 19.2495 16.4445 19.1644C16.2389 19.0792 16.0632 18.935 15.9396 18.75C15.816 18.565 15.75 18.3475 15.75 18.125C15.75 17.8266 15.8685 17.5405 16.0795 17.3295C16.2905 17.1185 16.5766 17 16.875 17ZM7.875 17C8.0975 17 8.31501 17.066 8.50002 17.1896C8.68502 17.3132 8.82922 17.4889 8.91436 17.6945C8.99951 17.9 9.02179 18.1262 8.97838 18.3445C8.93498 18.5627 8.82783 18.7632 8.6705 18.9205C8.51316 19.0778 8.31271 19.185 8.09448 19.2284C7.87625 19.2718 7.65005 19.2495 7.44448 19.1644C7.23891 19.0792 7.06321 18.935 6.9396 18.75C6.81598 18.565 6.75 18.3475 6.75 18.125C6.75 17.8266 6.86853 17.5405 7.0795 17.3295C7.29048 17.1185 7.57663 17 7.875 17Z" fill="white"/>
</svg>
